<?xml version="1.0" encoding="UTF-8"?>
<svg width="64" height="64" viewBox="0 0 64 64" fill="none" xmlns="http://www.w3.org/2000/svg">
  <rect width="64" height="64" rx="14" fill="url(#paint0_linear)"/>
  <path d="M18 31C18 25.201 22.701 20.5 28.5 20.5C31.7267 20.5 34.6614 21.9005 36.7425 24.2044C38.3116 25.9322 39.25 28.1769 39.25 30.625C39.25 33.0731 38.3116 35.3178 36.7425 37.0456C34.6614 39.3495 31.7267 40.75 28.5 40.75C22.701 40.75 18 36.049 18 30.25V31Z" fill="white" fill-opacity="0.9"/>
  <path d="M43.5 25.75C45.7091 25.75 47.5 27.5409 47.5 29.75C47.5 31.9591 45.7091 33.75 43.5 33.75C41.2909 33.75 39.5 31.9591 39.5 29.75C39.5 27.5409 41.2909 25.75 43.5 25.75Z" fill="url(#paint1_linear)"/>
  <path d="M17.75 44C17.75 38.6152 22.1152 34.25 27.5 34.25H38.5C43.8848 34.25 48.25 38.6152 48.25 44V45.25H17.75V44Z" fill="white" fill-opacity="0.85"/>
  <defs>
    <linearGradient id="paint0_linear" x1="0" y1="32" x2="64" y2="32" gradientUnits="userSpaceOnUse">
      <stop stop-color="#3F00E9"/>
      <stop offset="1" stop-color="#C947FF"/>
    </linearGradient>
    <linearGradient id="paint1_linear" x1="39.5" y1="29.75" x2="47.5" y2="29.75" gradientUnits="userSpaceOnUse">
      <stop stop-color="#C947FF"/>
      <stop offset="1" stop-color="#3F00E9"/>
    </linearGradient>
  </defs>
</svg>
